<svg width="383" height="398" viewBox="0 0 383 398" fill="none" xmlns="http://www.w3.org/2000/svg">
<path d="M119.17 375.388C176.074 405.12 268.346 405.12 325.251 375.388C382.155 345.656 382.155 297.464 325.251 267.732C268.346 238.001 176.074 238.011 119.17 267.732C62.2652 297.453 62.2652 345.614 119.17 375.388Z" fill="#F5F5F5"/>
<path d="M157.339 254.484C157.074 254.125 157.223 230.05 149.06 222.892C140.898 215.734 133.697 221.411 138.423 229.986C141.595 235.643 150.361 245.655 150.371 255.245L157.339 254.484Z" fill="#E5332A"/>
<path opacity="0.6" d="M157.339 254.484C157.074 254.125 157.223 230.05 149.06 222.892C140.898 215.734 133.697 221.411 138.423 229.986C141.595 235.643 150.361 245.655 150.371 255.245L157.339 254.484Z" fill="white"/>
<path d="M154.473 255.044C154.365 255.045 154.261 255.005 154.181 254.933C154.101 254.86 154.051 254.761 154.04 254.653C151.587 231.572 142.346 223.304 142.251 223.219C142.164 223.144 142.111 223.036 142.103 222.921C142.095 222.806 142.133 222.693 142.209 222.606C142.284 222.519 142.392 222.466 142.507 222.458C142.622 222.45 142.735 222.488 142.822 222.564C143.213 222.902 152.422 231.096 154.907 254.558C154.919 254.674 154.884 254.791 154.811 254.882C154.738 254.973 154.632 255.031 154.516 255.044H154.473Z" fill="white"/>
<path d="M155.763 279.965C152.771 266.379 148.5 258.491 131.593 249.79C116.019 241.765 102.623 233.285 118.197 230.208C131.128 227.649 156.017 248.182 156.905 266.157L155.763 279.965Z" fill="#E5332A"/>
<path d="M154.103 262.89C154.015 262.892 153.928 262.866 153.854 262.817C153.78 262.768 153.723 262.697 153.691 262.615C148.584 248.997 132.27 235.822 118.134 233.845C118.019 233.827 117.917 233.765 117.848 233.672C117.778 233.579 117.748 233.463 117.764 233.348C117.771 233.291 117.79 233.236 117.82 233.186C117.849 233.137 117.888 233.093 117.934 233.059C117.981 233.024 118.033 232.999 118.089 232.986C118.145 232.972 118.203 232.969 118.261 232.978C132.703 234.998 149.303 248.426 154.516 262.308C154.553 262.418 154.547 262.537 154.497 262.642C154.448 262.747 154.36 262.828 154.251 262.869L154.103 262.89Z" fill="white"/>
<path d="M280.22 300.572C279.776 301.164 279.702 302.528 279.247 304.379C278.787 305.74 278.682 307.195 278.94 308.608C280.003 310.382 281.688 311.697 283.667 312.298C286.098 313.059 289.091 312.425 291.988 310.691C294.885 308.957 297.073 306.853 301.207 305.679C305.342 304.506 307.393 303.565 309.349 301.979C311.643 300.139 314.699 295.064 310.321 293.89C305.944 292.717 296.418 296.861 287.758 297.242L280.22 300.572Z" fill="#263238"/>
<path d="M280.22 295.159V301.651C280.482 302.382 280.944 303.026 281.553 303.508C282.162 303.99 282.895 304.292 283.667 304.379C284.379 304.493 285.108 304.416 285.781 304.157C286.833 303.753 287.744 303.052 288.405 302.14C289.065 301.227 289.447 300.143 289.503 299.018L289.757 295.159H280.22Z" fill="#FFA8A7"/>
<path d="M292.612 255.066C292.664 263.133 290.349 298.003 290.349 298.003C290.349 298.003 287.05 302.179 279.881 298.003L277.439 259.083L292.612 255.066Z" fill="#E5332A"/>
<path opacity="0.5" d="M292.612 255.066C292.664 263.133 290.349 298.003 290.349 298.003C290.349 298.003 287.05 302.179 279.881 298.003L277.439 259.083L292.612 255.066Z" fill="black"/>
<path d="M271.677 328.253C272.586 321.518 279.575 308.851 291.575 303.501C303.576 298.151 318.093 299.663 320.852 301.989C323.612 304.315 324.331 309.179 318.558 310.744C312.785 312.309 308.249 314.973 311.823 317.986C315.397 321 316.507 325.155 310.66 326.286C304.813 327.418 297.909 323.252 296.28 326.973C294.652 330.695 298.088 333.55 291.575 334.893C285.062 336.236 277.058 331.203 272.544 338.625L271.677 328.253Z" fill="#E5332A"/>
<path d="M272.068 333.349C272.012 333.359 271.955 333.359 271.899 333.349C271.846 333.327 271.798 333.295 271.757 333.254C271.717 333.214 271.685 333.165 271.663 333.112C271.642 333.059 271.631 333.002 271.631 332.945C271.632 332.888 271.644 332.831 271.666 332.778C280.569 311.632 306.304 302.116 315.28 302.687C315.396 302.695 315.504 302.748 315.581 302.835C315.659 302.922 315.698 303.036 315.693 303.152C315.69 303.21 315.676 303.267 315.651 303.319C315.626 303.371 315.59 303.418 315.547 303.457C315.504 303.495 315.453 303.524 315.398 303.543C315.343 303.562 315.285 303.569 315.227 303.565C308.101 303.131 281.742 311.156 272.47 333.116C272.432 333.189 272.374 333.25 272.303 333.291C272.231 333.332 272.15 333.352 272.068 333.349Z" fill="white"/>
<path d="M307.308 320.408C307.249 320.418 307.188 320.418 307.128 320.408C307.012 320.344 294.927 314.994 283.762 317.5C283.706 317.514 283.648 317.516 283.592 317.507C283.535 317.498 283.481 317.478 283.432 317.447C283.384 317.417 283.342 317.376 283.31 317.329C283.277 317.282 283.255 317.228 283.244 317.172C283.231 317.117 283.23 317.059 283.24 317.003C283.249 316.947 283.27 316.893 283.3 316.845C283.362 316.748 283.459 316.679 283.571 316.654C295.022 314.085 307.372 319.551 307.488 319.604C307.583 319.642 307.661 319.713 307.709 319.803C307.757 319.893 307.771 319.997 307.75 320.097C307.728 320.197 307.672 320.286 307.591 320.349C307.511 320.411 307.41 320.443 307.308 320.439V320.408Z" fill="white"/>
<path d="M208.026 222.49L170.206 244.323L260.036 296.184L288.403 279.807L297.856 274.351L208.026 222.49Z" fill="#E5332A"/>
<path d="M297.856 274.351V279.817L269.488 296.195L269.477 290.729L297.856 274.351Z" fill="#E5332A"/>
<path opacity="0.2" d="M297.856 274.351V279.817L269.488 296.195L269.477 290.729L297.856 274.351Z" fill="black"/>
<path d="M212.076 249.79C212.076 249.79 245.202 239.787 250.953 238.212C256.705 236.637 267.765 233.983 270.989 235.431C274.214 236.88 275.853 238.55 276.149 243.213C276.213 244.091 276.149 248.352 276.149 248.352C276.149 248.352 260.141 253.3 247.031 253.3C233.92 253.3 212.076 249.79 212.076 249.79Z" fill="#E5332A"/>
<path opacity="0.6" d="M212.076 249.79C212.076 249.79 245.202 239.787 250.953 238.212C256.705 236.637 267.765 233.983 270.989 235.431C274.214 236.88 275.853 238.55 276.149 243.213C276.213 244.091 276.149 248.352 276.149 248.352C276.149 248.352 260.141 253.3 247.031 253.3C233.92 253.3 212.076 249.79 212.076 249.79Z" fill="black"/>
<path d="M240.391 193.498L238.192 205.372L226.011 206.778L227.766 190.39L240.391 193.498Z" fill="#FFA8A7"/>
<path d="M251.746 184.014C251.746 184.014 253.343 188.909 252.857 189.216C251.981 189.402 251.083 189.452 250.192 189.364L251.746 184.014Z" fill="#F28F8F"/>
<path d="M248.574 168.313C250.689 170.523 252.666 174.213 251.746 183.57C250.784 193.826 247.718 196.564 246.46 197.157C244.525 198.055 238.001 196.49 235.823 194.915C233.159 192.948 228.126 188.042 226.815 182.005C225.271 174.9 227.248 166.822 232.44 165.183C239.799 162.868 246.84 166.442 248.574 168.313Z" fill="#FFA8A7"/>
<path d="M253.406 173.356C252.159 175.704 249.811 181.551 243.14 183.2C243.14 183.2 242.77 179.224 239.471 179.182C236.172 179.14 235.051 183.211 236.69 186.044C238.329 188.878 240.391 188.233 240.391 188.233C240.391 188.233 240.052 193.826 236.024 195.824C236.024 195.824 231.171 198.034 226.751 195.211C224.764 193.942 222.459 188.434 221.275 184.014C218.758 174.667 219.213 167.509 225.155 166.04C226.403 162.117 228.422 160.859 232.154 160.616C240.211 160.077 245.413 166.04 252.106 166.04C255.595 166.04 254.823 170.681 253.406 173.356Z" fill="#263238"/>
<path d="M225.314 166.716L221.275 164.982C221.388 164.718 221.552 164.478 221.758 164.277C221.963 164.076 222.207 163.918 222.474 163.811C222.741 163.704 223.026 163.65 223.314 163.654C223.602 163.657 223.886 163.717 224.15 163.83C224.415 163.943 224.655 164.107 224.856 164.313C225.057 164.519 225.215 164.762 225.322 165.029C225.429 165.296 225.483 165.582 225.479 165.869C225.476 166.157 225.416 166.441 225.303 166.706L225.314 166.716Z" fill="#263238"/>
<path d="M212.161 245.804C212.161 252.147 211.558 258.787 214.212 263.45C216.866 268.113 228.887 277.713 242.421 275.429C251.26 273.939 279.839 263.048 279.839 263.048C279.839 263.048 292.527 258.386 292.612 255.066C292.696 250.16 292.358 243.266 281.267 243.562C271.159 243.826 241.163 248.743 241.163 248.743L212.161 245.804Z" fill="#E5332A"/>
<path opacity="0.5" d="M212.161 245.804C212.161 252.147 211.558 258.787 214.212 263.45C216.866 268.113 228.887 277.713 242.421 275.429C251.26 273.939 279.839 263.048 279.839 263.048C279.839 263.048 292.527 258.386 292.612 255.066C292.696 250.16 292.358 243.266 281.267 243.562C271.159 243.826 241.163 248.743 241.163 248.743L212.161 245.804Z" fill="black"/>
<path d="M214.518 204.674C215.576 201.354 219.805 197.738 224.034 198.52C231.784 199.958 240.264 202.475 242.505 203.13C242.505 203.13 241.448 220.217 250.256 225.334L251.408 247.083C251.408 247.083 249.241 251.407 245.899 253.543C242.273 255.837 237.24 259.295 228.137 258.534C224.987 258.285 221.926 257.373 219.154 255.857C216.382 254.341 213.963 252.255 212.055 249.737C212.055 249.737 212.161 229.183 212.509 219.984C212.827 212.223 213.768 206.958 214.518 204.674Z" fill="#E5332A"/>
<path opacity="0.2" d="M214.518 204.674C215.576 201.354 219.805 197.738 224.034 198.52C231.784 199.958 240.264 202.475 242.505 203.13C242.505 203.13 241.448 220.217 250.256 225.334L251.408 247.083C251.408 247.083 249.241 251.407 245.899 253.543C242.273 255.837 237.24 259.295 228.137 258.534C224.987 258.285 221.926 257.373 219.154 255.857C216.382 254.341 213.963 252.255 212.055 249.737C212.055 249.737 212.161 229.183 212.509 219.984C212.827 212.223 213.768 206.958 214.518 204.674Z" fill="black"/>
<path d="M250.499 229.595C250.499 229.595 245.921 224.848 244.313 219.339C244.313 219.339 244.313 227.396 250.594 231.752L250.499 229.595Z" fill="#E5332A"/>
<path opacity="0.4" d="M250.499 229.595C250.499 229.595 245.921 224.848 244.313 219.339C244.313 219.339 244.313 227.396 250.594 231.752L250.499 229.595Z" fill="black"/>
<path d="M280.6 213.989L285.517 206.926C285.517 206.926 286.691 205.224 287.124 204.515C287.558 203.807 287.854 201.439 286.405 200.836C283.783 199.779 278.327 197.167 276.731 197.156C276.075 197.156 273.337 201.745 268.642 207.931C265.83 211.631 261.949 216.77 261.949 217.224C261.949 217.679 260.945 218.144 265.026 220.227C267.952 221.663 270.981 222.879 274.087 223.864L280.6 213.989Z" fill="#E5332A"/>
<path opacity="0.6" d="M280.6 213.989L285.517 206.926C285.517 206.926 286.691 205.224 287.124 204.515C287.558 203.807 287.854 201.439 286.405 200.836C283.783 199.779 278.327 197.167 276.731 197.156C276.075 197.156 273.337 201.745 268.642 207.931C265.83 211.631 261.949 216.77 261.949 217.224C261.949 217.679 260.945 218.144 265.026 220.227C267.952 221.663 270.981 222.879 274.087 223.864L280.6 213.989Z" fill="black"/>
<path d="M283.73 206.323C280.717 210.658 274.288 221.38 274.098 221.676C273.908 221.972 264.582 217.943 262.076 216.854C262.014 216.97 261.971 217.095 261.949 217.224C261.949 217.668 260.945 218.144 265.026 220.227C267.952 221.663 270.981 222.879 274.087 223.864L280.6 213.989L285.517 206.926C285.517 206.926 286.691 205.224 287.124 204.515C287.558 203.807 287.854 201.439 286.405 200.836C286.691 200.984 286.733 201.988 283.73 206.323Z" fill="#263238"/>
<path d="M275.779 199.409L285.083 203.183L274.701 219.053L265.428 215.078L275.779 199.409Z" fill="#E5332A"/>
<path opacity="0.8" d="M275.779 199.409L285.083 203.183L274.701 219.053L265.428 215.078L275.779 199.409Z" fill="white"/>
<path d="M242.527 203.13C247.306 204.568 250.224 204.833 255.51 212.963C260.797 221.094 272.375 237.218 273.485 239.164C275.081 241.86 275.769 245.063 274.394 247.548C273.104 249.853 269.361 248.849 264.117 244.239C259.042 239.787 248.997 227.205 248.997 227.205C245.689 219.535 243.509 211.426 242.527 203.13Z" fill="#FFA8A7"/>
<path d="M273.263 248.743C275.684 248.045 279.332 239.047 282.123 228.844C284.914 218.641 286.352 216.368 286.352 213.154C286.352 209.939 286.204 205.837 286.204 205.837L281.425 212.72C281.233 211.371 280.826 210.061 280.22 208.84C279.607 207.582 278.454 206.598 277.513 207.349C277.006 207.751 278.338 209.464 278.052 213.344C277.968 214.89 278.064 216.441 278.338 217.964L269.435 239.512L273.263 248.743Z" fill="#FFA8A7"/>
<path d="M242.527 203.13C244.898 203.634 247.215 204.37 249.441 205.33C251.591 206.175 253.419 207.677 254.665 209.622C258.365 215.765 263.652 224.509 263.652 224.509C263.652 224.509 264.561 232.122 255.309 234.786L250.382 229.5C248.369 227.347 246.716 224.883 245.487 222.204C243.404 217.594 241.025 210.32 242.527 203.13Z" fill="#E5332A"/>
<path opacity="0.2" d="M242.527 203.13C244.898 203.634 247.215 204.37 249.441 205.33C251.591 206.175 253.419 207.677 254.665 209.622C258.365 215.765 263.652 224.509 263.652 224.509C263.652 224.509 264.561 232.122 255.309 234.786L250.382 229.5C248.369 227.347 246.716 224.883 245.487 222.204C243.404 217.594 241.025 210.32 242.527 203.13Z" fill="black"/>
<path d="M254.992 102.21L156.334 45.2523C153.85 43.8143 151.788 44.7025 151.376 47.2083C151.606 45.6346 152.167 44.1274 153.021 42.7861C153.876 41.4448 155.005 40.2998 156.334 39.4265L160.437 37.0475C161.998 36.2553 163.724 35.8424 165.475 35.8424C167.226 35.8424 168.952 36.2553 170.513 37.0475L269.181 94.005C270.666 94.9408 271.892 96.2352 272.745 97.769L258.555 105.963C257.71 104.427 256.483 103.134 254.992 102.21Z" fill="#37474F"/>
<path d="M274.214 336.775C274.12 338.523 273.614 340.225 272.738 341.741C271.862 343.256 270.639 344.544 269.171 345.498L265.068 347.898C263.647 348.611 262.091 349.015 260.502 349.084C258.913 349.154 257.327 348.886 255.849 348.299C258.228 349.198 260.078 347.855 260.078 344.979V110.933C260.015 109.181 259.505 107.474 258.598 105.974L272.787 97.7796C273.69 99.2847 274.196 100.995 274.257 102.749L274.214 336.775Z" fill="#263238"/>
<path d="M254.992 102.21L156.334 45.2523C153.554 43.6452 151.302 44.9457 151.302 48.1599V282.186C151.397 283.933 151.902 285.633 152.776 287.148C153.651 288.663 154.87 289.952 156.334 290.909L254.992 347.898C257.784 349.494 260.025 348.194 260.025 344.98V110.933C259.932 109.185 259.428 107.484 258.554 105.968C257.679 104.453 256.459 103.165 254.992 102.21ZM255.299 311.801C255.299 313.736 253.956 314.518 252.275 313.546L159.052 259.718C158.162 259.142 157.422 258.361 156.894 257.442C156.366 256.522 156.066 255.49 156.017 254.431V81.3172C156.017 79.3824 157.371 78.6 159.052 79.5727L162.763 81.6873L252.275 133.379C253.164 133.956 253.902 134.737 254.428 135.656C254.954 136.576 255.252 137.608 255.299 138.666V311.801Z" fill="#455A64"/>
<path d="M205.658 82.6072C206.176 82.9411 206.607 83.3933 206.916 83.9263C207.224 84.4594 207.402 85.0582 207.434 85.6734C207.434 86.8047 206.641 87.2699 205.658 86.7307C205.144 86.3943 204.716 85.9414 204.409 85.4086C204.102 84.8759 203.925 84.2784 203.892 83.6645C203.892 82.512 204.685 82.0362 205.658 82.6072Z" fill="#263238"/>
<path d="M205.658 294.947C207.689 296.281 209.378 298.073 210.589 300.18C211.799 302.287 212.497 304.649 212.626 307.075C212.626 311.537 209.454 313.355 205.626 311.114C203.59 309.786 201.895 307.997 200.679 305.891C199.463 303.786 198.76 301.424 198.627 298.997C198.659 294.525 201.799 292.717 205.658 294.947Z" fill="#263238"/>
<path d="M222.406 100.624C223.438 101.296 224.297 102.201 224.914 103.266C225.531 104.331 225.889 105.527 225.958 106.756C225.958 109.019 224.362 109.928 222.406 108.807C221.375 108.133 220.517 107.226 219.901 106.159C219.286 105.092 218.931 103.895 218.864 102.664C218.864 100.402 220.45 99.4925 222.406 100.624Z" fill="#263238"/>
<path d="M213.736 99.8519C213.736 101.364 212.615 101.967 211.22 101.131L187.895 87.6611C187.169 87.207 186.561 86.5866 186.122 85.8513C185.682 85.116 185.424 84.2867 185.368 83.4319C185.368 81.9199 186.5 81.3172 187.895 82.1525L211.22 95.6227C211.945 96.0767 212.552 96.6973 212.989 97.4328C213.427 98.1684 213.683 98.9977 213.736 99.8519Z" fill="#263238"/>
<path d="M170.206 86.0117L159.041 79.5727C157.371 78.6 156.017 79.3824 156.017 81.3172V254.484C156.066 255.542 156.366 256.573 156.892 257.492C157.418 258.411 158.154 259.192 159.041 259.771L170.206 266.22V86.0117Z" fill="#263238"/>
<g opacity="0.15">
<path d="M255.299 138.634V293.457L162.763 240.052V81.7085L252.275 133.401C253.157 133.972 253.89 134.744 254.416 135.654C254.942 136.564 255.244 137.585 255.299 138.634Z" fill="white"/>
</g>
<path d="M163.344 82.7235L251.99 133.908C252.778 134.432 253.434 135.132 253.907 135.952C254.38 136.771 254.658 137.69 254.717 138.634V292.452L163.344 239.703V82.7235ZM162.763 81.6662V240.052L255.299 293.467V138.634C255.252 137.576 254.954 136.544 254.428 135.624C253.902 134.705 253.164 133.924 252.275 133.348L162.763 81.6556V81.6662Z" fill="white"/>
<path d="M255.309 311.801V298.923L170.206 249.79L156.905 257.455C157.405 258.378 158.133 259.157 159.02 259.718L252.264 313.546C253.946 314.518 255.309 313.736 255.309 311.801Z" fill="#37474F"/>
<path d="M255.309 304.379L226.942 320.756V315.301L255.309 298.923V304.379Z" fill="#E5332A"/>
<path opacity="0.2" d="M255.309 304.379L226.942 320.756V315.301L255.309 298.923V304.379Z" fill="black"/>
<path d="M137.112 263.439L226.942 315.301V320.756L137.112 268.895V263.439Z" fill="#E5332A"/>
<path opacity="0.2" d="M137.112 263.439L226.942 315.301V320.756L137.112 268.895V263.439Z" fill="black"/>
<path d="M170.206 244.323L137.112 263.439L226.942 315.301L255.309 298.923V293.457L170.206 244.323Z" fill="#E5332A"/>
<path d="M170.206 244.323L137.112 263.439L226.942 315.301L255.309 298.923V293.457L170.206 244.323Z" fill="#E5332A"/>
<path d="M171.031 201.143C168.219 201.143 166.072 201.312 160.881 208.84C156.482 215.184 142.092 235.082 141.236 236.023C140.38 236.964 147.728 240.316 147.728 240.316L167.161 220.787L171.031 201.143Z" fill="#FFA8A7"/>
<path d="M144.154 234.416C144.154 234.416 145.698 233.592 149.599 233.623C152.021 233.623 153.532 233.792 153.829 233.01C154.22 231.836 155.171 229.679 155.668 229.69V235.431L144.154 234.416Z" fill="#F28F8F"/>
<path d="M137.324 320.482C130.821 329.067 125.746 331.055 123.97 332.916C122.194 334.776 123.219 338.445 127.565 339.259C131.91 340.074 136.615 339.08 139.417 336.278C142.219 333.476 144.154 329.828 147.009 327.819C149.864 325.81 151.333 325.239 151.767 322.829C152.2 320.418 150.022 313.25 150.022 313.25L137.324 320.482Z" fill="#263238"/>
<path d="M140.443 307.392C141.046 310.511 141.722 313.239 139.597 316.992C138.907 318.198 138.148 319.363 137.324 320.482C133.528 325.588 130.441 329.574 129.923 330.272C129.405 330.97 132.598 333.19 136.267 331.668C139.935 330.145 143.097 324.711 145.486 321.433C146.544 319.974 147.601 318.652 148.426 317.627C149.543 316.262 150.122 314.536 150.054 312.774L149.853 307.794L140.443 307.392Z" fill="#FFA8A7"/>
<path d="M153.152 332.683C146.649 341.279 141.574 343.256 139.798 345.128C138.022 346.999 139.058 350.647 143.393 351.471C147.728 352.296 152.443 351.281 155.245 348.49C158.047 345.698 159.982 342.03 162.847 340.031C165.713 338.033 167.172 337.441 167.595 335.03C168.018 332.62 165.861 325.451 165.861 325.451L153.152 332.683Z" fill="#263238"/>
<path d="M156.271 319.593C156.884 322.713 157.55 325.44 155.425 329.194C154.74 330.403 153.981 331.568 153.152 332.683C149.356 337.79 146.269 341.776 145.751 342.474C145.233 343.172 148.426 345.402 152.095 343.88C155.763 342.357 158.925 336.923 161.314 333.645C162.372 332.186 163.429 330.854 164.254 329.839C165.37 328.47 165.949 326.74 165.882 324.975L165.692 319.995L156.271 319.593Z" fill="#FFA8A7"/>
<path d="M198.669 243.224C203.649 253.458 201.683 263.598 188.223 270.238C180.705 273.949 166.157 280.505 166.157 280.505C166.157 280.505 168.271 286.32 168.345 296.121C168.419 304.749 166.125 323.516 166.125 323.516C166.125 323.516 160.5 326.128 156.472 323.516C156.472 323.516 154.685 311.886 153.3 300.16C151.619 285.432 150.202 276.772 150.953 273.6C151.619 270.798 157.476 266.696 161.949 263.556L146.343 270.894C146.343 270.894 149.694 275.525 150.487 283.867C151.45 293.954 150.234 311.294 150.234 311.294C148.741 312.023 147.114 312.435 145.454 312.505C143.795 312.574 142.139 312.298 140.591 311.695C140.591 311.695 129.605 268.927 131.255 262.995C133.623 254.484 166.041 241.521 167.69 238.18L198.669 243.224Z" fill="#E5332A"/>
<path opacity="0.2" d="M198.669 243.224C203.649 253.458 201.683 263.598 188.223 270.238C180.705 273.949 166.157 280.505 166.157 280.505C166.157 280.505 168.271 286.32 168.345 296.121C168.419 304.749 166.125 323.516 166.125 323.516C166.125 323.516 160.5 326.128 156.472 323.516C156.472 323.516 154.685 311.886 153.3 300.16C151.619 285.432 150.202 276.772 150.953 273.6C151.619 270.798 157.476 266.696 161.949 263.556L146.343 270.894C146.343 270.894 149.694 275.525 150.487 283.867C151.45 293.954 150.234 311.294 150.234 311.294C148.741 312.023 147.114 312.435 145.454 312.505C143.795 312.574 142.139 312.298 140.591 311.695C140.591 311.695 129.605 268.927 131.255 262.995C133.623 254.484 166.041 241.521 167.69 238.18L198.669 243.224Z" fill="black"/>
<path d="M187.61 201.164C197.76 202.115 199.378 200.487 202.412 208.713L193.108 232.429L198.669 243.224C197.358 245.18 181.858 253.511 168.24 243.573C165.85 234.874 163.944 226.049 162.53 217.14C161.473 209.643 168.113 201.375 171.401 201.047C172.587 200.906 173.781 200.839 174.975 200.847L187.61 201.164Z" fill="#E5332A"/>
<path opacity="0.6" d="M187.61 201.164C197.76 202.115 199.378 200.487 202.412 208.713L193.108 232.429L198.669 243.224C197.358 245.18 181.858 253.511 168.24 243.573C165.85 234.874 163.944 226.049 162.53 217.14C161.473 209.643 168.113 201.375 171.401 201.047C172.587 200.906 173.781 200.839 174.975 200.847L187.61 201.164Z" fill="white"/>
<path d="M152.221 234.395C154.336 234.459 154.251 233.105 154.78 231.784C155.404 230.229 155.975 228.844 155.975 228.844L157.371 233.877L159.284 243.203C159.284 243.203 153.67 243.129 149.546 243.203C145.423 243.277 140.739 241.902 140.263 238.973C139.967 237.155 141.321 234.607 145.55 234.205C147.775 234.097 150.006 234.161 152.221 234.395Z" fill="#FFA8A7"/>
<path d="M156.197 222.49C154.082 223.23 154.632 226.772 155.52 230.737C156.408 234.702 157.878 241.363 158.333 243.118C158.787 244.873 159.39 245.962 162.012 245.962C164.634 245.962 168.906 246.248 170.756 245.962C172.606 245.677 172.871 244.038 172.49 240.305C172.044 236.045 171.381 231.81 170.502 227.618C169.762 224.076 169.308 222.194 167.108 222.194C164.55 222.162 158.417 221.718 156.197 222.49Z" fill="#263238"/>
<path d="M156.059 233.2C156.271 234.131 158.174 234.903 159.908 234.977C162.418 235.075 164.931 234.905 167.404 234.469C169.17 233.993 170.291 237.038 168.589 239.819C166.886 242.6 163.038 243.446 158.343 243.192C156.934 241.804 156.001 240.005 155.679 238.053C155.537 236.426 155.666 234.786 156.059 233.2Z" fill="#FFA8A7"/>
<path d="M193.15 232.428C193.15 232.428 192.093 234.184 188.804 234.184C191.712 232.206 194.239 228.294 196.607 223.611L193.15 232.428Z" fill="#E5332A"/>
<path opacity="0.1" d="M193.15 232.428C193.15 232.428 192.093 234.184 188.804 234.184C191.712 232.206 194.239 228.294 196.607 223.611L193.15 232.428Z" fill="white"/>
<path d="M197.749 202.232C203.353 203.289 205.69 208.576 205.859 218.937C206.028 229.299 204.696 263.64 204.58 265.163C204.459 266.33 204.652 267.508 205.137 268.576C205.622 269.644 206.382 270.565 207.339 271.242C211.336 274.097 216.157 276.392 218.515 277.988C221.623 280.103 218.515 283.55 214.698 283.782C211.124 284.004 205.404 280.906 203.945 279.69C204.668 280.65 205.229 281.722 205.605 282.862C206.229 285.294 205.605 286.722 204.484 286.214C203.85 285.929 203.078 284.966 200.89 282.291C197.094 277.629 196.28 275.535 196.237 269.741C196.237 265.818 195.91 245.592 195.592 237.895C195.392 233.179 195.434 222.934 195.518 216.569C195.603 210.204 196.576 203.13 197.749 202.232Z" fill="#FFA8A7"/>
<path d="M163.017 181.899C163.017 181.899 159.453 176.211 161.959 170.745C164.465 165.279 174.71 158.142 186.394 163.217C197.496 168.049 196.512 180.821 196.555 186.605C196.629 192.081 163.017 181.899 163.017 181.899Z" fill="#263238"/>
<path d="M166.273 170.406C167.891 167.235 178.168 162.17 187.937 167.129C197.707 172.088 196.576 185.441 196.576 194.619V211.536C196.576 213.947 190.919 217.267 185.485 215.342L185.876 190.633C185.876 190.633 187.398 175.545 182.704 171.929C178.009 168.313 166.273 170.406 166.273 170.406Z" fill="#263238"/>
<path d="M185.876 183.676C186.51 184.056 187.419 182.83 188.202 182.005C188.984 181.181 191.553 180.07 192.822 182.756C194.091 185.441 191.173 189.153 189.439 190.358C188.954 190.78 188.348 191.037 187.707 191.092C187.067 191.147 186.426 190.997 185.876 190.665L185.707 201.09C185.707 201.09 183.137 206.736 176.984 207.571C170.83 208.406 172.088 203.342 174.108 200.836V197.019C172.569 197.348 170.988 197.426 169.424 197.252C168.62 197.04 166.696 194.725 165.459 192.134C164.074 189.216 161.758 184.046 163.82 175.302C166.03 165.913 176.117 165.627 182.143 169.413C188.17 173.198 185.876 183.676 185.876 183.676Z" fill="#FFA8A7"/>
<path d="M174.118 197.019C174.118 197.019 179.828 195.867 181.816 194.809C182.991 194.201 183.953 193.25 184.575 192.081C184.271 193.233 183.739 194.311 183.01 195.253C181.551 197.114 174.118 198.489 174.118 198.489V197.019Z" fill="#F28F8F"/>
<path d="M174.182 183.433C174.19 183.659 174.265 183.878 174.397 184.062C174.529 184.246 174.713 184.387 174.924 184.468C175.136 184.548 175.367 184.564 175.588 184.514C175.809 184.464 176.01 184.35 176.167 184.187C176.323 184.023 176.428 183.816 176.468 183.593C176.508 183.37 176.481 183.141 176.391 182.933C176.301 182.725 176.152 182.548 175.962 182.424C175.772 182.301 175.55 182.236 175.324 182.238C175.17 182.241 175.018 182.274 174.878 182.335C174.737 182.397 174.61 182.486 174.504 182.597C174.397 182.708 174.314 182.839 174.259 182.983C174.204 183.126 174.178 183.279 174.182 183.433Z" fill="#263238"/>
<path d="M175.398 179.108L177.84 180.462C178.013 180.126 178.05 179.737 177.944 179.375C177.838 179.012 177.596 178.705 177.269 178.516C177.108 178.429 176.931 178.375 176.749 178.357C176.566 178.34 176.382 178.36 176.208 178.415C176.033 178.47 175.871 178.56 175.732 178.679C175.593 178.798 175.479 178.944 175.398 179.108Z" fill="#263238"/>
<path d="M187.906 161.018L188.572 165.056C189.12 164.961 189.608 164.653 189.931 164.2C190.253 163.746 190.384 163.184 190.295 162.635C190.249 162.37 190.149 162.117 190.003 161.891C189.856 161.665 189.666 161.471 189.443 161.32C189.22 161.169 188.969 161.065 188.705 161.013C188.441 160.961 188.169 160.962 187.906 161.018Z" fill="#263238"/>
<path d="M192.791 163.016L189.048 164.644C189.278 165.146 189.696 165.537 190.212 165.735C190.728 165.932 191.3 165.92 191.807 165.701C192.051 165.593 192.271 165.437 192.453 165.242C192.636 165.048 192.777 164.818 192.869 164.567C192.961 164.317 193.001 164.05 192.988 163.784C192.974 163.517 192.907 163.256 192.791 163.016Z" fill="#263238"/>
<path d="M174.964 190.495L172.353 191.479C172.408 191.655 172.499 191.818 172.62 191.958C172.741 192.098 172.889 192.212 173.055 192.293C173.221 192.374 173.402 192.421 173.587 192.43C173.771 192.439 173.956 192.41 174.129 192.346C174.479 192.204 174.762 191.933 174.917 191.588C175.073 191.243 175.09 190.852 174.964 190.495Z" fill="#F28F8F"/>
<path d="M163.989 180.07L166.22 178.347C166.114 178.197 165.979 178.069 165.823 177.973C165.667 177.876 165.492 177.812 165.311 177.784C165.129 177.757 164.943 177.766 164.765 177.812C164.587 177.858 164.421 177.939 164.275 178.051C163.977 178.287 163.782 178.628 163.729 179.004C163.676 179.379 163.769 179.761 163.989 180.07Z" fill="#263238"/>
<path d="M164.677 183.105C164.687 183.328 164.763 183.543 164.894 183.724C165.026 183.905 165.208 184.043 165.417 184.121C165.626 184.2 165.854 184.215 166.072 184.165C166.29 184.115 166.488 184.003 166.643 183.841C166.797 183.679 166.901 183.476 166.941 183.256C166.981 183.036 166.955 182.809 166.867 182.604C166.78 182.398 166.634 182.223 166.447 182.099C166.261 181.976 166.042 181.91 165.818 181.91C165.509 181.918 165.215 182.049 165.002 182.272C164.788 182.496 164.671 182.795 164.677 183.105Z" fill="#263238"/>
<path d="M169.434 182.587L170.365 189.406L166.601 188.878L169.434 182.587Z" fill="#F28F8F"/>
<path d="M166.22 169.391C166.22 169.391 171.391 180.462 186.796 178.907C186.796 178.907 188.572 171.189 182.492 168.207C176.413 165.226 169.138 165.056 166.22 169.391Z" fill="#263238"/>
<path d="M182.133 177.522C183.941 177.755 184.469 180.514 184.025 182.809C183.581 185.103 185.759 185.293 187.462 182.809C188.557 180.905 189.177 178.765 189.27 176.571L182.133 177.522Z" fill="#263238"/>
<path d="M161.991 263.588C161.991 263.588 171.38 257.244 174.118 255.985C174.118 255.985 168.832 254.928 166.273 251.46C166.703 253.102 167.458 254.641 168.493 255.985L146.385 270.925L161.991 263.588Z" fill="#E5332A"/>
<path opacity="0.4" d="M161.991 263.588C161.991 263.588 171.38 257.244 174.118 255.985C174.118 255.985 168.832 254.928 166.273 251.46C166.703 253.102 167.458 254.641 168.493 255.985L146.385 270.925L161.991 263.588Z" fill="black"/>
<path d="M379.935 168.884L315.058 131.434C313.388 130.472 312.034 131.244 312.034 133.178V224.456C312.084 225.514 312.385 226.544 312.91 227.463C313.436 228.383 314.172 229.164 315.058 229.743L379.935 267.193C381.606 268.155 382.959 267.373 382.959 265.448V174.118C382.902 173.069 382.598 172.049 382.073 171.139C381.547 170.23 380.815 169.457 379.935 168.884Z" fill="#E0E0E0"/>
<path d="M296.154 207.857L316.761 219.762V203.384L296.598 205.71C294.684 205.932 294.483 206.894 296.154 207.857Z" fill="#E0E0E0"/>
<path d="M324.014 150.244L370.98 177.364C371.705 177.818 372.312 178.438 372.75 179.174C373.187 179.909 373.443 180.739 373.496 181.593C373.496 183.094 372.375 183.707 370.98 182.862L324.014 155.752C323.289 155.297 322.684 154.676 322.246 153.941C321.809 153.205 321.552 152.377 321.497 151.523C321.529 150.011 322.586 149.44 324.014 150.244Z" fill="#F0F0F0"/>
<path d="M323.993 166.611L370.958 193.731C371.685 194.185 372.293 194.805 372.732 195.541C373.171 196.276 373.43 197.105 373.485 197.96C373.485 199.461 372.354 200.075 370.958 199.229L323.993 172.119C323.27 171.662 322.665 171.041 322.228 170.306C321.791 169.571 321.533 168.743 321.476 167.89C321.529 166.378 322.586 165.807 323.993 166.611Z" fill="#F0F0F0"/>
<path d="M324.014 182.957L370.98 210.077C371.698 210.526 372.301 211.138 372.738 211.864C373.175 212.589 373.435 213.408 373.496 214.253C373.496 215.765 372.375 216.368 370.98 215.533L324.014 188.455C323.295 188.006 322.693 187.394 322.255 186.668C321.818 185.942 321.558 185.124 321.497 184.278C321.529 182.766 322.586 182.196 324.014 182.957Z" fill="#F0F0F0"/>
<path d="M324.014 199.377L370.98 226.486C371.704 226.942 372.31 227.563 372.747 228.298C373.185 229.033 373.441 229.862 373.496 230.716C373.496 232.228 372.375 232.83 370.98 231.995L324.014 204.875C323.288 204.421 322.681 203.8 322.244 203.065C321.806 202.329 321.55 201.5 321.497 200.646C321.529 199.144 322.586 198.573 324.014 199.377Z" fill="#F0F0F0"/>
<path d="M324.014 215.734L370.98 242.854C371.705 243.308 372.312 243.928 372.75 244.664C373.187 245.399 373.443 246.229 373.496 247.083C373.496 248.584 372.375 249.197 370.98 248.352L324.014 221.242C323.289 220.787 322.684 220.166 322.246 219.431C321.809 218.695 321.552 217.867 321.497 217.013C321.529 215.522 322.586 214.951 324.014 215.734Z" fill="#F0F0F0"/>
<path d="M316.761 59.4731V101.618C316.813 102.675 317.114 103.704 317.64 104.623C318.165 105.542 318.9 106.323 319.784 106.904L370.472 136.16C372.143 137.133 373.496 136.35 373.496 134.416V92.2287C373.446 91.1712 373.146 90.1406 372.62 89.2216C372.095 88.3025 371.358 87.5214 370.472 86.9422L319.784 57.6863C318.124 56.7664 316.761 57.5383 316.761 59.4731Z" fill="#F0F0F0"/>
<path d="M301.831 78.2828L321.529 80.556V96.9338L300.975 80.3974C300.75 80.2497 300.583 80.0285 300.503 79.7716C300.423 79.5148 300.434 79.238 300.535 78.9886C300.636 78.7392 300.821 78.5325 301.057 78.4038C301.293 78.2751 301.567 78.2323 301.831 78.2828Z" fill="#F0F0F0"/>
<path d="M373.496 80.5454C375.562 81.8909 377.281 83.7047 378.513 85.8395C379.746 87.9743 380.458 90.3698 380.591 92.8314C380.591 97.3567 377.419 99.1753 373.496 96.9232C371.43 95.5755 369.711 93.7597 368.478 91.6232C367.246 89.4867 366.534 87.0897 366.401 84.6266C366.401 80.1225 369.584 78.2828 373.496 80.5454Z" fill="#E5332A"/>
<path opacity="0.7" d="M373.496 80.5454C375.562 81.8909 377.281 83.7047 378.513 85.8395C379.746 87.9743 380.458 90.3698 380.591 92.8314C380.591 97.3567 377.419 99.1753 373.496 96.9232C371.43 95.5755 369.711 93.7597 368.478 91.6232C367.246 89.4867 366.534 87.0897 366.401 84.6266C366.401 80.1225 369.584 78.2828 373.496 80.5454Z" fill="white"/>
<path d="M328.74 71.4842L361.517 90.4101C362.24 90.8661 362.846 91.4871 363.283 92.2223C363.721 92.9574 363.978 93.7858 364.033 94.6394C364.033 96.1408 362.902 96.754 361.517 95.9082L328.74 76.9823C328.016 76.5263 327.411 75.9052 326.973 75.1701C326.536 74.435 326.279 73.6066 326.224 72.753C326.224 71.2516 327.355 70.6807 328.74 71.4842Z" fill="#E6E6E6"/>
<path d="M328.74 84.7324L361.517 103.658C362.24 104.114 362.846 104.735 363.283 105.47C363.721 106.206 363.978 107.034 364.033 107.888C364.033 109.389 362.902 110.002 361.517 109.156L328.74 90.2304C328.016 89.7744 327.411 89.1534 326.973 88.4183C326.536 87.6831 326.279 86.8548 326.224 86.0012C326.224 84.4998 327.355 83.9288 328.74 84.7324Z" fill="#E6E6E6"/>
<path d="M328.74 97.9805L361.517 116.906C362.24 117.362 362.846 117.983 363.283 118.719C363.721 119.454 363.978 120.282 364.033 121.136C364.033 122.637 362.902 123.25 361.517 122.404L328.74 103.479C328.016 103.023 327.411 102.402 326.973 101.666C326.536 100.931 326.279 100.103 326.224 99.2493C326.224 97.7479 327.355 97.177 328.74 97.9805Z" fill="#E6E6E6"/>
<path d="M115.173 114.231L50.307 76.7814C48.6364 75.8192 47.2831 76.6016 47.2831 78.5259V169.846C47.3322 170.904 47.632 171.935 48.1577 172.854C48.6835 173.773 49.4201 174.554 50.307 175.133L115.173 212.562C116.844 213.524 118.197 212.741 118.197 210.817V119.518C118.148 118.46 117.848 117.429 117.322 116.51C116.797 115.591 116.06 114.81 115.173 114.231Z" fill="#E0E0E0"/>
<path d="M59.2518 95.6438L106.218 122.753C106.944 123.208 107.552 123.828 107.991 124.563C108.431 125.299 108.689 126.128 108.745 126.983C108.745 128.495 107.613 129.097 106.218 128.262L59.2518 101.142C58.5281 100.686 57.9227 100.065 57.4853 99.3297C57.0479 98.5946 56.7909 97.7662 56.7354 96.9126C56.7354 95.4112 57.8668 94.8403 59.2518 95.6438Z" fill="#F0F0F0"/>
<path d="M59.2413 112.011L106.207 139.121C106.931 139.577 107.536 140.198 107.974 140.933C108.411 141.668 108.668 142.496 108.724 143.35C108.724 144.862 107.592 145.464 106.207 144.619L59.2413 117.509C58.5157 117.055 57.909 116.434 57.4713 115.699C57.0337 114.963 56.7778 114.134 56.7249 113.28C56.7249 111.778 57.8456 111.207 59.2413 112.011Z" fill="#F0F0F0"/>
<path d="M59.2518 128.389L106.218 155.467C106.944 155.921 107.552 156.541 107.991 157.276C108.431 158.012 108.689 158.841 108.745 159.696C108.745 161.197 107.613 161.811 106.218 160.965L59.2518 133.855C58.5292 133.398 57.9247 132.777 57.4875 132.042C57.0502 131.307 56.7926 130.479 56.7354 129.626C56.7354 128.156 57.8668 127.585 59.2518 128.389Z" fill="#F0F0F0"/>
<path d="M59.2518 144.767L106.218 171.887C106.938 172.335 107.542 172.947 107.981 173.673C108.42 174.398 108.682 175.217 108.745 176.063C108.745 177.575 107.613 178.178 106.218 177.342L59.2518 150.18C58.535 149.729 57.9339 149.117 57.4968 148.391C57.0598 147.666 56.799 146.848 56.7354 146.004C56.7354 144.534 57.8668 143.963 59.2518 144.767Z" fill="#F0F0F0"/>
<path d="M59.2518 161.155L106.218 188.243C106.944 188.698 107.552 189.318 107.991 190.053C108.431 190.789 108.689 191.618 108.745 192.473C108.745 193.974 107.613 194.587 106.218 193.741L59.2518 166.632C58.5281 166.176 57.9227 165.555 57.4853 164.82C57.0479 164.085 56.7909 163.256 56.7354 162.403C56.7354 160.922 57.8668 160.351 59.2518 161.155Z" fill="#F0F0F0"/>
<path d="M113.471 200.646L131.921 211.293C132.152 211.422 132.42 211.467 132.681 211.422C132.942 211.376 133.179 211.242 133.352 211.043C133.526 210.843 133.625 210.59 133.634 210.325C133.643 210.061 133.561 209.801 133.401 209.591L113.471 184.268V200.646Z" fill="#E0E0E0"/>
<path d="M0 198.69V240.834C0.0499702 241.892 0.350116 242.922 0.875789 243.841C1.40146 244.76 2.13767 245.541 3.02392 246.121L53.7115 275.377C55.3821 276.339 56.7354 275.567 56.7354 273.632V231.445C56.6855 230.388 56.3853 229.357 55.8596 228.438C55.334 227.519 54.5978 226.738 53.7115 226.159L3.02392 196.945C1.35336 195.972 0 196.755 0 198.69Z" fill="#F0F0F0"/>
<path d="M72.2885 262.668L52.0092 241.595V258.026L71.0409 264.634C71.2995 264.756 71.5938 264.779 71.8684 264.7C72.1431 264.62 72.3791 264.443 72.5323 264.201C72.6855 263.96 72.7453 263.671 72.7004 263.388C72.6555 263.106 72.509 262.85 72.2885 262.668Z" fill="#F0F0F0"/>
<path d="M56.7354 219.762C58.8011 221.107 60.5201 222.921 61.7529 225.056C62.9856 227.191 63.6973 229.586 63.83 232.048C63.83 236.563 60.6581 238.392 56.7354 236.14C54.671 234.793 52.9528 232.979 51.7202 230.844C50.4877 228.71 49.7753 226.315 49.6409 223.854C49.6409 219.328 52.8234 217.499 56.7354 219.762Z" fill="#E5332A"/>
<path opacity="0.7" d="M56.7354 219.762C58.8011 221.107 60.5201 222.921 61.7529 225.056C62.9856 227.191 63.6973 229.586 63.83 232.048C63.83 236.563 60.6581 238.392 56.7354 236.14C54.671 234.793 52.9528 232.979 51.7202 230.844C50.4877 228.71 49.7753 226.315 49.6409 223.854C49.6409 219.328 52.8234 217.499 56.7354 219.762Z" fill="white"/>
<path d="M11.9794 210.701L44.7561 229.627C45.4798 230.083 46.0852 230.704 46.5226 231.439C46.9601 232.174 47.217 233.002 47.2725 233.856C47.2725 235.357 46.1412 235.97 44.7455 235.125L11.9688 216.199C11.2433 215.745 10.6365 215.124 10.1989 214.389C9.7612 213.653 9.5053 212.824 9.45238 211.969C9.46295 210.447 10.5837 209.897 11.9794 210.701Z" fill="#E6E6E6"/>
<path d="M11.9794 223.949L44.7561 242.875C45.4798 243.331 46.0852 243.952 46.5226 244.687C46.9601 245.422 47.217 246.25 47.2725 247.104C47.2725 248.605 46.1412 249.219 44.7455 248.373L11.9688 229.447C11.2433 228.993 10.6365 228.372 10.1989 227.637C9.7612 226.901 9.5053 226.072 9.45238 225.218C9.46295 223.716 10.5837 223.135 11.9794 223.949Z" fill="#E6E6E6"/>
<path d="M11.9794 237.197L44.7561 256.123C45.4798 256.579 46.0852 257.2 46.5226 257.935C46.9601 258.67 47.217 259.499 47.2725 260.352C47.2725 261.854 46.1412 262.467 44.7455 261.621L11.9688 242.695C11.2433 242.241 10.6365 241.62 10.1989 240.885C9.7612 240.149 9.5053 239.32 9.45238 238.466C9.46295 236.964 10.5837 236.393 11.9794 237.197Z" fill="#E6E6E6"/>
<path d="M37.8201 2.15619V44.3007C37.8692 45.3584 38.169 46.3894 38.6948 47.3085C39.2205 48.2277 39.9572 49.0087 40.844 49.5873L91.5316 78.8537C93.2022 79.8159 94.5555 79.0335 94.5555 77.0986V34.9329C94.5064 33.8752 94.2066 32.8442 93.6809 31.9251C93.1551 31.0059 92.4185 30.2249 91.5316 29.6463L40.844 0.411619C39.2263 -0.550536 37.8201 0.231878 37.8201 2.15619Z" fill="#F0F0F0"/>
<path d="M110.066 66.1448L89.7871 45.062V61.4398L108.819 68.048C109.067 68.1448 109.341 68.1533 109.595 68.0721C109.849 67.9909 110.068 67.8249 110.214 67.602C110.36 67.379 110.425 67.1125 110.398 66.8473C110.371 66.582 110.254 66.334 110.066 66.1448Z" fill="#F0F0F0"/>
<path d="M94.5555 23.2284C96.6133 24.5786 98.3241 26.3945 99.5494 28.529C100.775 30.6635 101.48 33.0566 101.608 35.5144C101.608 40.0397 98.4359 41.8583 94.5132 39.6062C92.4488 38.2595 90.7307 36.4454 89.4981 34.3109C88.2655 32.1763 87.5531 29.7814 87.4187 27.3203C87.461 22.8055 90.6435 20.9658 94.5555 23.2284Z" fill="#E5332A"/>
<path opacity="0.7" d="M94.5555 23.2284C96.6133 24.5786 98.3241 26.3945 99.5494 28.529C100.775 30.6635 101.48 33.0566 101.608 35.5144C101.608 40.0397 98.4359 41.8583 94.5132 39.6062C92.4488 38.2595 90.7307 36.4454 89.4981 34.3109C88.2655 32.1763 87.5531 29.7814 87.4187 27.3203C87.461 22.8055 90.6435 20.9658 94.5555 23.2284Z" fill="white"/>
<path d="M49.7995 14.1673L82.5762 33.0932C83.2999 33.5492 83.9053 34.1702 84.3427 34.9053C84.7802 35.6405 85.0371 36.4688 85.0926 37.3224C85.0926 38.8238 83.9613 39.4371 82.5762 38.5912L49.7995 19.6653C49.0739 19.2112 48.4672 18.5907 48.0295 17.8552C47.5919 17.1196 47.336 16.2903 47.2831 15.436C47.2831 13.9347 48.4038 13.3637 49.7995 14.1673Z" fill="#E6E6E6"/>
<path d="M49.7995 27.4154L82.5762 46.3413C83.2999 46.7973 83.9053 47.4183 84.3427 48.1535C84.7802 48.8886 85.0371 49.7169 85.0926 50.5706C85.0926 52.072 83.9613 52.6852 82.5762 51.8393L49.7995 32.9134C49.0739 32.4594 48.4672 31.8388 48.0295 31.1033C47.5919 30.3677 47.336 29.5384 47.2831 28.6842C47.2831 27.1828 48.4038 26.6118 49.7995 27.4154Z" fill="#E6E6E6"/>
<path d="M49.7995 40.6635L82.5762 59.5895C83.2999 60.0454 83.9053 60.6665 84.3427 61.4016C84.7802 62.1367 85.0371 62.9651 85.0926 63.8187C85.0926 65.3201 83.9613 65.9333 82.5762 65.0875L49.7995 46.1616C49.0739 45.7075 48.4672 45.087 48.0295 44.3514C47.5919 43.6159 47.336 42.7866 47.2831 41.9323C47.2831 40.4309 48.4038 39.86 49.7995 40.6635Z" fill="#E6E6E6"/>
</svg>
