<svg width="180" height="180" viewBox="0 0 180 180" fill="none" xmlns="http://www.w3.org/2000/svg">
<path fill-rule="evenodd" clip-rule="evenodd" d="M84.8043 2.448C53.0761 16.8746 26.7831 36.0432 3.8034 61.502C0.433351 65.2356 0.384301 65.3171 0.561151 66.8835C0.659701 67.7583 1.0026 70.8125 1.32345 73.67C4.83975 105.023 15.7833 137.789 32.4067 166.737C35.0397 171.322 34.1424 170.818 42.7919 172.571C73.5318 178.799 106.793 178.798 137.557 172.567C146.436 170.768 145.44 171.338 148.244 166.455C165.759 135.951 176.635 101.786 179.465 68.3843L179.724 65.3256L178.047 63.374C156.473 38.2635 125.531 15.543 94.5869 2.08845C89.7714 -0.00539637 90.2376 -0.0229465 84.8043 2.448ZM100.751 12.209C127.038 25.2819 146.531 39.722 167.686 61.794L173.022 67.361L172.798 70.1294C170.519 98.2769 159.236 133.839 144.184 160.315C141.16 165.633 142.087 164.99 135.622 166.26C105.473 172.183 75.8768 172.172 44.9861 166.226L38.9408 165.063L37.2852 162.232C22.662 137.235 11.9183 104.903 8.13105 74.4944C7.1163 66.3476 6.30225 67.977 16.5155 57.7116C36.7223 37.4004 58.1985 22.127 83.1339 10.3325C90.7088 6.74955 89.5163 6.6222 100.751 12.209ZM86.4743 39.1545C86.4743 40.3641 86.5548 40.4537 87.6425 40.4537H88.8102L88.6082 44.8146C88.3553 50.2673 86.8532 55.4045 85.4537 55.6034C84.6486 55.7177 84.6185 55.8608 84.6185 59.5926V63.464H86.6597H88.7009V61.0403V58.617L93.4331 58.721L98.1648 58.8249L98.0442 61.1442L97.9236 63.464H99.9927H102.062V59.7771V56.0907L101.041 55.9733L100.021 55.8558L99.9072 50.103C99.7452 41.8725 99.9567 40.4537 101.346 40.4537C102.341 40.4537 102.433 40.3434 102.433 39.1545V37.8558H94.4537H86.4743V39.1545ZM63.3771 41.5391L62.1648 42.624L62.2746 46.3307C62.3777 49.8186 62.3349 50.072 61.5474 50.6237C60.5147 51.3468 60.3405 51.1695 59.6007 48.6441C58.8389 46.0427 58.8546 45.7767 59.7879 45.5328C60.4989 45.347 60.5704 43.4457 59.8937 42.71C59.5643 42.3522 52.3301 44.6513 52.3301 45.1139C52.3301 46.4936 53.0275 47.4107 53.9442 47.2356C55.0409 47.0259 56.8769 51.7964 55.9359 52.4106C54.8523 53.118 53.9829 52.4826 52.7009 50.0477C50.6813 46.2105 49.113 45.0891 46.7951 45.8249C45.5553 46.2182 45.6665 48.9897 46.922 48.9897C48.0272 48.9897 48.9204 49.8407 49.6337 51.5727C50.3262 53.2562 51.5299 54.5567 52.3944 54.5567C52.7675 54.5567 53.0721 54.7236 53.0721 54.9279C53.0721 55.1318 52.9254 55.2992 52.7458 55.2992C51.9728 55.2992 51.4881 57.6032 51.7253 60.1542C51.9552 62.6288 51.921 62.7921 50.9868 63.6579L50.0067 64.5665L50.9859 65.8503C52.0803 67.2854 53.3718 67.2089 54.7992 65.6249C55.4972 64.85 55.6583 61.0209 55.1187 58.0262C54.8852 56.7311 55.6209 55.67 56.7527 55.67C58.2876 55.67 59.3334 61.9425 57.8043 61.9736C57.416 61.9817 57.4664 63.5373 57.8754 64.1844C58.5625 65.2703 65.7405 62.8749 65.4498 61.6568C65.1087 60.2267 65.0039 60.1236 63.8906 60.1236C62.9573 60.1236 62.8263 59.9342 62.2413 57.7382C61.8917 56.4264 61.5074 55.0971 61.3877 54.7848C61.0884 54.0054 62.8942 53.5586 63.6862 54.216C64.0075 54.4829 64.9197 55.9917 65.7131 57.5699C67.3511 60.8279 68.2259 61.6082 70.2387 61.6082C71.7367 61.6082 71.8223 61.5042 72.1269 59.31C72.3092 57.9987 72.2678 57.9353 71.154 57.8255C70.15 57.7269 69.804 57.38 68.6354 55.2992C67.7336 53.6931 66.8403 52.6361 65.9642 52.1375C64.7379 51.4395 64.6852 51.3378 65.2014 50.6529C65.6172 50.1003 65.714 49.2318 65.5889 47.1614C65.435 44.6054 65.489 44.3439 66.3318 43.5627C67.2314 42.7289 67.2336 42.7082 66.5712 41.5868C65.7333 40.1679 64.9215 40.1558 63.3771 41.5391ZM95.6678 48.1545L95.567 55.4846L94.4753 55.6088C93.875 55.6772 92.6829 55.6281 91.8266 55.4994L90.2696 55.2659L90.9743 53.4105C91.6916 51.5228 92.3945 46.3019 92.4062 42.7734L92.4125 40.8249H94.0905H95.7681L95.6678 48.1545ZM121.844 41.9229C121.338 42.1389 120.888 42.8067 120.659 43.682C119.656 47.5047 119.593 47.2793 121.782 47.6897C123.107 47.9385 123.132 47.9205 123.635 46.3316C124.713 42.9224 129.373 45.7322 129.313 49.7561C129.276 52.304 129.162 52.3305 124.091 50.99C123.434 50.8163 123.22 51.0093 122.859 52.1042C122.287 53.8371 122.427 53.9951 125.012 54.5441C128.208 55.2222 128.283 55.3019 127.541 57.245C125.964 61.3742 119.206 62.8677 120.092 58.8915C120.543 56.8634 120.476 56.6744 119.182 56.3297C117.367 55.8468 117.076 56.0961 116.547 58.5869C115.934 61.4736 116.098 61.8161 118.665 63.0162C121.543 64.3613 125.576 64.4238 127.967 63.1598C133.12 60.4368 135.101 48.3948 131.068 44.312C129.152 42.3716 123.95 41.0243 121.844 41.9229ZM76.1027 55.6497C75.0623 56.6906 75.087 58.7457 76.1526 59.738C78.6114 62.0289 82.6276 58.7745 80.64 56.1015C79.6514 54.7718 77.2227 54.5301 76.1027 55.6497ZM107.014 56.2514C106.245 57.0195 106.106 57.4322 106.29 58.3853C106.967 61.8948 112.082 61.6401 112.082 58.0968C112.082 55.4558 108.95 54.315 107.014 56.2514ZM20.0412 71.5559C20.3472 71.7458 36.2547 78.7019 55.391 87.0138L90.1841 102.126L125.431 86.8041C144.816 78.377 160.64 71.4443 160.594 71.3984C160.548 71.3525 158.136 71.7165 155.233 72.207C141.133 74.5907 123.171 76.8983 110.041 78.0138C106.762 78.2924 98.6027 78.4868 90.1854 78.4868C75.3764 78.4868 71.1491 78.2519 56.4125 76.6112C45.9189 75.4425 25.7427 72.5274 20.4728 71.4186C19.7726 71.2715 19.6466 71.3115 20.0412 71.5559ZM65.0101 133.089C51.2766 149.953 40.0914 163.8 40.154 163.86C40.217 163.92 51.3743 156.395 64.9485 147.138C78.5228 137.881 89.8443 130.298 90.1076 130.288C90.4991 130.272 102.036 138.037 138.711 163.003C139.579 163.594 140.289 163.996 140.289 163.896C140.289 163.62 90.5711 102.632 90.2561 102.523C90.1044 102.47 78.7437 116.225 65.0101 133.089Z" fill="#E5332A"/>
</svg>
